<svg xmlns="http://www.w3.org/2000/svg" xmlns:xlink="http://www.w3.org/1999/xlink">
    <symbol id="account" viewBox="0 0 24 24">
        <path d="m12 2c-5.52 0-10 4.48-10 10s4.48 10 10 10 10-4.48 10-10-4.48-10-10-10zm-4.93 16.28c0.43-0.9 3.05-1.78 4.93-1.78s4.51 0.88 4.93 1.78c-1.36 1.08-3.07 1.72-4.93 1.72s-3.57-0.64-4.93-1.72zm11.29-1.45c-1.43-1.74-4.9-2.33-6.36-2.33s-4.93 0.59-6.36 2.33c-1.02-1.34-1.64-3.01-1.64-4.83 0-4.41 3.59-8 8-8s8 3.59 8 8c0 1.82-0.62 3.49-1.64 4.83zm-6.36-10.83c-1.94 0-3.5 1.56-3.5 3.5s1.56 3.5 3.5 3.5 3.5-1.56 3.5-3.5-1.56-3.5-3.5-3.5zm0 5c-0.83 0-1.5-0.67-1.5-1.5s0.67-1.5 1.5-1.5 1.5 0.67 1.5 1.5-0.67 1.5-1.5 1.5z" clip-rule="evenodd" fill="#fff" fill-rule="evenodd"/>
        <mask x="2" y="2" width="20" height="20" style="mask-type:alpha" maskUnits="userSpaceOnUse">
        <path d="m12 2c-5.52 0-10 4.48-10 10s4.48 10 10 10 10-4.48 10-10-4.48-10-10-10zm-4.93 16.28c0.43-0.9 3.05-1.78 4.93-1.78s4.51 0.88 4.93 1.78c-1.36 1.08-3.07 1.72-4.93 1.72s-3.57-0.64-4.93-1.72zm11.29-1.45c-1.43-1.74-4.9-2.33-6.36-2.33s-4.93 0.59-6.36 2.33c-1.02-1.34-1.64-3.01-1.64-4.83 0-4.41 3.59-8 8-8s8 3.59 8 8c0 1.82-0.62 3.49-1.64 4.83zm-6.36-10.83c-1.94 0-3.5 1.56-3.5 3.5s1.56 3.5 3.5 3.5 3.5-1.56 3.5-3.5-1.56-3.5-3.5-3.5zm0 5c-0.83 0-1.5-0.67-1.5-1.5s0.67-1.5 1.5-1.5 1.5 0.67 1.5 1.5-0.67 1.5-1.5 1.5z" clip-rule="evenodd" fill="#fff" fill-rule="evenodd"/>
        </mask>
    </symbol>

    <symbol id="logo" viewBox="0 0 108 24">
        <g clip-path="url(#a)" fill="#fff">
        <path d="m0.96 23h8.896v-0.448c-3.2-0.416-4.16-1.76-4.16-4.992v-14.688h0.192l8.32 20.16h1.152l7.456-20.16h0.16v17.856c0 1.28-0.8 1.728-3.072 1.824v0.448h11.04v-0.448c-2.688-0.096-3.328-0.608-3.328-1.824v-17.76c0-1.216 0.64-1.76 3.328-1.856v-0.416h-8.16l-6.048 16.448h-0.16l-6.592-16.448h-9.024v0.416c2.752 0.064 3.936 1.536 3.936 3.456v12.992c0 3.232-0.928 4.608-3.936 4.992v0.448z"/>
        <path d="m52.128 23.352h1.536v-17.248c0-3.168 0.864-4.544 3.872-4.992v-0.416h-9.088v0.416c3.232 0.384 4.416 1.824 4.416 4.992v10.624h-0.032l-12.32-16.032h-7.552v0.416c2.752 0.128 3.936 1.76 3.936 3.712v12.736c0 3.232-0.928 4.608-3.936 4.992v0.448h9.024v-0.448c-3.264-0.352-4.288-1.76-4.288-4.992v-12.832h0.032l14.4 18.624z"/>
        <path d="m63.6 23h12.096v-0.448c-2.848-0.064-3.712-0.608-3.712-1.824v-19.456h0.768c2.464 0 4.384 2.464 6.624 6.816l0.48-0.064-0.16-7.328h-20.128l-0.192 7.328 0.48 0.064c2.272-4.448 4.224-6.816 6.656-6.816h0.8v19.456c0 1.216-0.896 1.76-3.712 1.824v0.448z"/>
        <path d="m102.13 23.352h1.536v-17.248c0-3.168 0.864-4.544 3.872-4.992v-0.416h-9.088v0.416c3.232 0.384 4.416 1.824 4.416 4.992v10.624h-0.032l-12.32-16.032h-7.552v0.416c2.752 0.128 3.936 1.76 3.936 3.712v12.736c0 3.232-0.928 4.608-3.936 4.992v0.448h9.024v-0.448c-3.264-0.352-4.288-1.76-4.288-4.992v-12.832h0.032l14.4 18.624z"/>
        </g>
        <defs>
        <clipPath id="a">
        <rect width="108" height="24" fill="#fff"/>
        </clipPath>
        </defs>
    </symbol>

    <symbol id="arrow-down" viewBox="0 0 16 24">
        <path d="M16 16L14.59 14.59L9 20.17V0H7V20.17L1.42 14.58L0 16L8 24L16 16Z" fill="#fff"/>
    </symbol>

    <symbol id="arrow-right" viewBox="0 0 24 16">
        <path d="m16-6.9938e-7 -1.41 1.41 5.58 5.59h-20.17l8.7422e-8 2h20.17l-5.59 5.58 1.42 1.42 8-8-8-8z" fill="#FBD784"/>
    </symbol>

    <symbol id="menu" viewBox="0 0 20 12">
        <path d="M9 2L19 2C19.2652 2 19.5196 1.89464 19.7071 1.70711C19.8946 1.51957 20 1.26522 20 1C20 0.734784 19.8946 0.480429 19.7071 0.292892C19.5196 0.105356 19.2652 0 19 0L9 0C8.73478 0 8.48043 0.105356 8.29289 0.292892C8.10536 0.480429 8 0.734784 8 1C8 1.26522 8.10536 1.51957 8.29289 1.70711C8.48043 1.89464 8.73478 2 9 2ZM19 10L1 10C0.734784 10 0.480429 10.1054 0.292892 10.2929C0.105356 10.4804 0 10.7348 0 11C0 11.2652 0.105356 11.5196 0.292892 11.7071C0.480429 11.8946 0.734784 12 1 12L19 12C19.2652 12 19.5196 11.8946 19.7071 11.7071C19.8946 11.5196 20 11.2652 20 11C20 10.7348 19.8946 10.4804 19.7071 10.2929C19.5196 10.1054 19.2652 10 19 10V10ZM1 7L19 7C19.2652 7 19.5196 6.89464 19.7071 6.70711C19.8946 6.51957 20 6.26522 20 6C20 5.73478 19.8946 5.48043 19.7071 5.29289C19.5196 5.10536 19.2652 5 19 5L1 5C0.734784 5 0.480429 5.10536 0.292892 5.29289C0.105356 5.48043 0 5.73478 0 6C0 6.26522 0.105356 6.51957 0.292892 6.70711C0.480429 6.89464 0.734784 7 1 7Z" fill="#fff"/>
    </symbol>

    <symbol id="close" viewBox="0 0 18 18">
        <path d="m10.41 9 6.3-6.29c0.1883-0.1883 0.2941-0.4437 0.2941-0.71s-0.1058-0.52169-0.2941-0.71c-0.1883-0.1883-0.4437-0.29409-0.71-0.29409s-0.5217 0.10579-0.71 0.29409l-6.29 6.3-6.29-6.3c-0.1883-0.1883-0.4437-0.29409-0.71-0.29409s-0.5217 0.10579-0.71 0.29409c-0.1883 0.18831-0.29409 0.4437-0.29409 0.71s0.10579 0.5217 0.29409 0.71l6.3 6.29-6.3 6.29c-0.09373 0.093-0.16812 0.2036-0.21889 0.3254-0.05077 0.1219-0.076909 0.2526-0.076909 0.3846s0.026139 0.2627 0.076909 0.3846c0.05077 0.1218 0.12516 0.2324 0.21889 0.3254 0.09296 0.0937 0.20356 0.1681 0.32542 0.2189s0.25257 0.0769 0.38458 0.0769 0.26272-0.0261 0.38458-0.0769 0.23246-0.1252 0.32542-0.2189l6.29-6.3 6.29 6.3c0.093 0.0937 0.2036 0.1681 0.3255 0.2189 0.1218 0.0508 0.2525 0.0769 0.3845 0.0769 0.1321 0 0.2628-0.0261 0.3846-0.0769 0.1219-0.0508 0.2325-0.1252 0.3254-0.2189 0.0938-0.093 0.1682-0.2036 0.2189-0.3254 0.0508-0.1219 0.0769-0.2526 0.0769-0.3846s-0.0261-0.2627-0.0769-0.3846c-0.0507-0.1218-0.1251-0.2324-0.2189-0.3254l-6.3-6.29z" fill="#fff"/>
    </symbol>
</svg>